<svg width="15" height="15" viewBox="0 0 15 15" fill="none" xmlns="http://www.w3.org/2000/svg">
<path d="M5.45552 8.99276C5.4541 9.09643 5.43169 9.19889 5.38957 9.29426C5.34745 9.38963 5.28645 9.47604 5.21007 9.54853C5.13368 9.62101 5.04342 9.67816 4.94445 9.71668C4.84548 9.75521 4.73976 9.77435 4.63334 9.77302L1.58394 9.73999C1.47752 9.73901 1.37242 9.71759 1.27468 9.67693C1.17693 9.63628 1.08846 9.5772 1.01434 9.50308C0.940222 9.42896 0.881911 9.34126 0.84275 9.24501C0.803589 9.14875 0.78435 9.04584 0.786136 8.94218L0.832019 5.9717C0.833619 5.86808 0.856154 5.76571 0.898339 5.67042C0.940524 5.57513 1.00153 5.48879 1.07788 5.41634C1.15423 5.34388 1.24442 5.28673 1.3433 5.24814C1.44219 5.20956 1.54783 5.19029 1.6542 5.19144C1.76057 5.19259 1.86558 5.21414 1.96325 5.25486C2.06091 5.29558 2.1493 5.35466 2.22339 5.42875C2.29747 5.50283 2.35579 5.59046 2.39502 5.68663C2.43424 5.7828 2.45361 5.88563 2.45201 5.98925L2.43647 7.05677L8.77212 1.04419C8.92604 0.898112 9.13299 0.817353 9.34744 0.819676C9.56189 0.821999 9.76628 0.907213 9.91564 1.05657C10.065 1.20593 10.1471 1.4072 10.1439 1.6161C10.1406 1.82501 10.0524 2.02443 9.89843 2.1705L3.56279 8.18309L4.6601 8.19451C4.76636 8.19579 4.87124 8.21745 4.96874 8.25827C5.06624 8.29909 5.15444 8.35826 5.22832 8.43239C5.30219 8.50653 5.36028 8.59418 5.39927 8.69033C5.43825 8.78648 5.45737 8.88925 5.45552 8.99276ZM14.6037 9.09185L14.6496 6.12137C14.6514 6.01771 14.6321 5.9148 14.593 5.81855C14.5538 5.7223 14.4955 5.6346 14.4214 5.56048C14.3473 5.48636 14.2588 5.42728 14.161 5.38662C14.0633 5.34597 13.9582 5.32454 13.8518 5.32357L10.8024 5.29054C10.5876 5.28821 10.3802 5.36911 10.2261 5.51543C10.0719 5.66176 9.98343 5.86153 9.9802 6.0708C9.97697 6.28006 10.0592 6.48168 10.2088 6.6313C10.3584 6.78091 10.5632 6.86628 10.778 6.8686L11.8748 6.88048L5.53919 12.8931C5.38527 13.0391 5.29699 13.2386 5.29376 13.4475C5.29053 13.6564 5.37263 13.8576 5.52199 14.007C5.67135 14.1564 5.87573 14.2416 6.09018 14.2439C6.30464 14.2462 6.51159 14.1655 6.66551 14.0194L13.0012 8.0068L12.9842 9.0757C12.9809 9.28497 13.0632 9.48659 13.2128 9.6362C13.3624 9.78582 13.5671 9.87118 13.782 9.87351C13.9968 9.87584 14.2041 9.79494 14.3583 9.64861C14.5125 9.50229 14.6009 9.30252 14.6042 9.09325L14.6037 9.09185Z" fill="#4A5DCD"/>
</svg>
